<svg class="main-svg" xmlns="http://www.w3.org/2000/svg" xmlns:xlink="http://www.w3.org/1999/xlink" width="371" height="336" style="" viewBox="0 0 371 336"><rect x="0" y="0" width="371" height="336" style="fill: rgb(255, 255, 255); fill-opacity: 1;"/><defs id="defs-20830e"><g class="clips"><clipPath id="clip20830exyplot" class="plotclip"><rect width="251" height="216"/></clipPath><clipPath class="axesclip" id="clip20830ex"><rect x="60" y="0" width="251" height="336"/></clipPath><clipPath class="axesclip" id="clip20830ey"><rect x="0" y="60" width="371" height="216"/></clipPath><clipPath class="axesclip" id="clip20830exy"><rect x="60" y="60" width="251" height="216"/></clipPath></g><g class="gradients"/><g class="patterns"/></defs><g class="bglayer"/><g class="layer-below"><g class="imagelayer"/><g class="shapelayer"/></g><g class="cartesianlayer"><g class="subplot xy"><g class="layer-subplot"><g class="shapelayer"/><g class="imagelayer"/></g><g class="gridlayer"><g class="x"><path class="xgrid crisp" transform="translate(123.71000000000001,0)" d="M0,60v216" style="stroke: rgb(238, 238, 238); stroke-opacity: 1; stroke-width: 1px;"/><path class="xgrid crisp" transform="translate(187.42000000000002,0)" d="M0,60v216" style="stroke: rgb(238, 238, 238); stroke-opacity: 1; stroke-width: 1px;"/><path class="xgrid crisp" transform="translate(251.13,0)" d="M0,60v216" style="stroke: rgb(238, 238, 238); stroke-opacity: 1; stroke-width: 1px;"/></g><g class="y"><path class="ygrid crisp" transform="translate(0,213.23)" d="M60,0h251" style="stroke: rgb(238, 238, 238); stroke-opacity: 1; stroke-width: 1px;"/><path class="ygrid crisp" transform="translate(0,161.26)" d="M60,0h251" style="stroke: rgb(238, 238, 238); stroke-opacity: 1; stroke-width: 1px;"/><path class="ygrid crisp" transform="translate(0,109.28)" d="M60,0h251" style="stroke: rgb(238, 238, 238); stroke-opacity: 1; stroke-width: 1px;"/></g></g><g class="zerolinelayer"><path class="xzl zl crisp" transform="translate(60,0)" d="M0,60v216" style="stroke: rgb(68, 68, 68); stroke-opacity: 1; stroke-width: 1px;"/><path class="yzl zl crisp" transform="translate(0,265.2)" d="M60,0h251" style="stroke: rgb(68, 68, 68); stroke-opacity: 1; stroke-width: 1px;"/></g><path class="xlines-below"/><path class="ylines-below"/><g class="overlines-below"/><g class="xaxislayer-below"/><g class="yaxislayer-below"/><g class="overaxes-below"/><g class="plot" transform="translate(60,60)" clip-path="url(#clip20830exyplot)"><g class="scatterlayer mlayer"><g class="trace scatter tracedb77e9" style="stroke-miterlimit: 2; opacity: 1;"><g class="fills"/><g class="errorbars"/><g class="lines"><path class="js-line" d="M0,205.2L0.34,10.8L0.76,11.95L0.78,11.96L1.29,10.99L1.45,13.18L1.47,13.18L2.08,14.34L2.29,13.8L2.31,13.76L3.48,14.78L3.49,14.81L5.07,19.14L5.08,19.04L5.1,18.99L5.91,20.16L5.96,20.05L5.98,19.94L6.14,20.58L6.77,20.52L6.78,20.42L8.98,22.3L9.12,21.94L9.14,21.83L9.54,22.45L9.96,22.19L9.98,22.13L10.78,21.42L10.93,21.84L10.95,21.86L11.31,21.4L11.62,22.1L11.63,22.2L12.33,22.79L12.44,22.73L12.45,22.72L12.51,22.59L12.91,23.43L13.21,22.97L13.23,22.79L13.84,23.19L14.23,22.21L14.25,22.22L14.26,22.23L14.46,21.75L14.63,22.44L15.02,22.17L15.04,22.2L15.24,21.59L15.72,22.6L15.75,22.57L15.76,22.53L16.07,22.28L16.46,22.82L16.48,23L17.38,22.23L17.43,22.46L17.44,22.51L17.62,22.77L18.28,22.37L18.3,22.35L18.63,23.24L19.19,22.73L19.2,22.71L20.4,23.2L20.48,22.97L20.49,22.9L20.55,23.02L21,22.55L21.24,22.83L21.25,22.91L22.83,22.63L22.86,22.78L22.87,22.8L23.33,23.76L23.62,22.82L23.64,22.74L24.02,23.03L24.4,22.43L24.44,22.55L24.45,22.61L24.52,22.43L24.91,23.82L24.92,23.83L25.41,23.97L25.59,23.64L25.6,23.51L26.21,22.76L26.41,22.91L26.43,22.98L26.58,22.63L26.97,23.6L26.99,23.59L27,23.62L27.5,23.9L27.73,23.5L27.74,23.51L28.21,23.63L28.34,23.01L28.35,22.93L28.85,22.53L29.11,23.23L29.13,23.26L30.13,24.28L30.22,24.15L30.24,24.1L31.03,22.56L31.06,22.64L31.08,22.62L32.5,23.77L32.54,23.71L32.56,23.73L32.75,23.56L32.96,24.21L32.98,24.31L33.55,25.13L33.85,24.55L33.87,24.34L34.85,23.29L35.14,23.53L35.15,23.63L35.61,24.28L36.02,24.18L36.03,24.14L37.07,25.31L37.08,25.3L37.12,25.46L37.59,24.49L37.64,24.49L37.65,24.47L37.86,24.86L38.15,24.18L38.38,24.29L38.39,24.25L39.5,24.57L39.51,24.59L39.54,24.44L39.95,25.13L40.17,25.02L40.19,25.02L40.56,25.77L40.95,25.05L40.96,24.95L43.86,24.3L43.87,24.38L43.88,24.53L43.98,24.31L44.21,24.98L44.52,24.92L44.53,24.95L44.84,25.16L45.42,24.57L45.51,24.71L45.53,24.73L46.48,25.16L46.53,25.06L46.55,25.07L47.23,25.12L47.3,24.96L47.31,24.87L48.32,25.54L48.51,25.07L48.52,25.05L49.22,25.49L49.29,25.38L49.3,25.41L49.37,25.24L49.77,26.06L49.83,26.06L49.85,26.12L50.08,25.74L50.58,26.3L50.6,26.38L51.35,27.08L51.36,27.21L51.9,29.11L51.91,29.22L52.99,31.37L53.01,31.36L53.54,31.17L53.62,31.63L53.63,31.75L55.21,37.66L55.24,37.62L55.25,37.61L56.37,38.21L56.47,38.09L56.48,38.01L57.2,38.32L57.33,37.79L57.34,37.73L58.34,38.56L58.38,38.49L58.4,38.41L58.65,39.22L59.27,38.87L59.29,38.77L60.15,37.72L60.52,38.1L60.54,38.16L61.9,38.36L61.91,38.43L61.92,38.51L64.75,39.16L64.8,39.05L64.82,39.02L67.25,39.22L67.26,39.15L68.31,38.3L68.36,38.37L68.37,38.39L68.45,38.23L68.74,38.88L68.89,38.92L68.91,39.04L69.19,38.93L69.74,39.26L69.75,39.2L69.86,39.46L70.28,38.99L70.5,39.11L70.51,39.09L70.83,39.21L71.4,38.66L71.43,38.69L71.44,38.71L73.06,39.38L73.11,39.24L73.12,39.22L73.51,39.19L73.58,38.83L73.6,38.78L76.13,38.99L76.14,39.04L76.92,39.15L76.95,39.06L76.96,39.01L79.65,39.76L79.69,39.67L79.7,39.62L80.64,38.89L80.81,39.04L80.82,39.13L84.62,39.39L84.63,39.34L86.31,38.89L86.33,38.95L86.34,38.98L86.85,40.02L87.22,39.41L87.23,39.33L88.3,37.79L88.63,38.18L88.64,38.23L89.35,39.37L89.47,39.28L89.49,39.19L89.97,39.61L90.22,39.08L90.24,39.07L91.08,38.95L91.09,38.98L91.1,39.04L91.38,38.85L91.72,39.44L91.73,39.48L93.5,39.63L93.51,39.67L95.31,39.39L95.32,39.36L96.62,39.77L96.66,39.68L96.67,39.65L97.36,39.77L97.5,39.59L97.51,39.55L98,39.8L98.18,39.22L98.19,39.19L99.56,40.3L99.82,39.61L99.83,39.58L100.38,39.21L100.67,39.49L100.69,39.5L100.91,39.18L101.35,39.87L101.36,39.85L102.65,39.15L102.66,39.03L102.75,38.83L103.17,39.41L103.37,39.19L103.39,39.24L104.42,39.75L104.48,39.67L104.5,39.6L105.26,39.27L105.27,39.24L106.09,39.06L106.13,39.12L106.14,39.17L106.98,39.37L106.99,39.34L107.01,39.35L108.18,39.54L108.19,39.53L109.36,39.18L109.4,39.29L109.41,39.32L110.79,40.07L110.8,40.05L110.82,40.06L112.24,39.2L112.25,39.06L112.54,38.11L113.08,38.21L113.1,38.26L113.73,39.39L113.75,39.43L114.61,39.8L114.71,39.74L114.73,39.75L115.53,39.62L115.7,39.84L115.71,39.88L116.63,40.21L116.69,40.08L116.7,40.08L118.23,39.8L118.24,39.85L118.97,39.95L119.05,39.9L119.06,39.9L119.89,39.8L119.9,39.77L119.91,39.76L120.97,39.15L121,39.25L121.01,39.25L122.63,39.86L122.66,39.8L122.68,39.8L123.71,39.82L123.74,39.78L123.75,39.74L124.68,39.59L124.75,39.82L124.77,39.85L125.84,39.8L125.88,39.7L125.89,39.62L126.87,39.98L126.88,39.95L127.77,39.29L127.89,39.56L127.9,39.56L127.98,39.37L128.46,40.07L128.51,40.07L128.53,40.1L129.28,40.11L129.3,40.01L129.32,40.05L130.64,39.69L130.65,39.75L130.82,39.85L131.01,39.6L131.38,39.92L131.39,39.99L132.34,40.36L132.44,40.11L132.45,40.07L133.32,39.31L133.56,39.57L133.57,39.59L135.23,39.74L135.24,39.73L136.57,39.76L136.6,39.66L136.62,39.59L136.97,39.45L137.42,40.01L137.51,39.97L137.52,39.92L138.87,39.61L138.89,39.64L138.9,39.68L141.18,39.87L141.19,39.8L141.2,39.78L144.89,39.26L144.9,39.21L146.47,40.38L146.54,40.16L146.56,40.15L146.76,40.18L146.84,39.51L146.85,39.48L148.02,38.68L148.06,38.74L148.07,38.85L148.85,40.05L148.94,39.99L148.95,39.97L150.05,39.95L150.06,39.87L150.07,39.85L150.98,39.65L150.99,39.67L151,39.66L157.81,39.93L157.82,39.85L158.99,39.26L159.04,39.35L159.06,39.39L160.51,40.51L160.69,40.11L160.7,40.04L161.59,39.75L161.63,39.77L161.64,39.78L162.46,38.68L162.56,38.83L162.57,38.85L163.03,39.49L163.04,39.54L164.1,40.34L164.22,40.09L164.23,40.01L165.44,40.08L165.45,40.08L166.29,40.3L166.31,40.36L166.84,40.77L167.15,40.37L167.16,40.33L168.13,40.13L168.15,40.08L168.17,40.01L168.73,39.66L168.9,40.06L168.94,39.98L168.96,39.99L170.36,40.32L170.41,40.2L170.42,40.15L171.64,40.19L171.67,40.26L171.68,40.3L172.49,40.46L172.55,40.38L172.56,40.38L173.19,40.41L173.34,40.69L173.35,40.72L175.89,40.17L175.9,40.11L176.64,39.95L176.74,40.2L176.75,40.27L177.77,40.36L177.79,40.32L179.2,40.79L179.25,40.72L179.26,40.69L179.47,40.87L180,40.53L180.02,40.45L180.89,39.72L181.07,39.91L181.09,39.97L181.74,40.22L181.79,40.29L181.8,40.33L182.86,40.25L182.87,40.2L184.6,40.38L184.62,40.33L187.48,40.54L187.5,40.63L188.9,40.2L188.93,40.24L188.95,40.3L189.28,40.24L189.67,40.51L189.69,40.55L193,40.3L193.01,40.23L193.1,40.59L193.81,40.42L193.83,40.45L195.08,40.71L195.13,40.61L195.14,40.52L196.21,40.31L196.22,40.38L197.08,40.35L197.1,40.25L197.12,40.22L198.36,40.44L198.38,40.5L199.41,40.66L199.42,40.55L201.26,40.56L201.27,40.62L203.86,39.99L203.87,40.08L204.99,40.51L205.01,40.47L205.03,40.43L205.89,40.84L205.96,40.69L205.97,40.67L210.14,40.44L210.15,40.45L211.39,40.87L211.4,40.91L212.1,40.53L212.19,40.61L212.2,40.57L212.32,40.75L212.69,40.23L212.86,40.21L212.88,40.19L213.7,40.49L213.76,40.46L213.77,40.43L215.26,40.78L215.32,40.69L215.34,40.68L216.32,40.15L216.43,40.27L216.44,40.28L216.72,40.41L217.25,40.21L217.26,40.26L219.86,40.41L219.87,40.44L221.25,40.8L221.27,40.76L221.29,40.73L223.11,40.14L223.12,40.24L224.82,40.63L224.92,40.39L224.93,40.37L226.08,40.13L226.23,40.37L226.24,40.39L227.45,40.31L227.48,40.37L227.49,40.39L227.96,40.66L228.27,40.3L228.31,40.33L228.32,40.4L229.64,40.64L229.66,40.59L229.67,40.54L230.61,40.76L230.63,40.79L231.93,40.1L232.09,40.4L232.1,40.44L235.03,40.28L235.05,40.2L236.21,40.62L236.22,40.58L236.23,40.52L237.3,40.57L237.32,40.5L238.65,40.44L238.67,40.38L238.68,40.36L239.88,40.37L239.93,40.58L239.94,40.64L241.18,40.55L241.19,40.5L242,40.44L242.08,40.55L242.09,40.55L246.15,40.5L246.16,40.53L247.23,40.64L247.25,40.55L247.27,40.54L250.32,40.35L250.34,40.31L250.99,40.03L251,40.08" style="vector-effect: non-scaling-stroke; fill: none; stroke: rgb(31, 119, 180); stroke-opacity: 1; stroke-width: 2px; opacity: 1;"/></g><g class="points"/><g class="text"/></g></g></g><g class="overplot"/><path class="xlines-above crisp" d="M0,0" style="fill: none;"/><path class="ylines-above crisp" d="M0,0" style="fill: none;"/><g class="overlines-above"/><g class="xaxislayer-above"><g class="xtick"><text text-anchor="middle" x="0" y="289" transform="translate(60,0)" style="font-family: 'Open Sans', verdana, arial, sans-serif; font-size: 12px; fill: rgb(68, 68, 68); fill-opacity: 1; white-space: pre; opacity: 1;">0</text></g><g class="xtick"><text text-anchor="middle" x="0" y="289" style="font-family: 'Open Sans', verdana, arial, sans-serif; font-size: 12px; fill: rgb(68, 68, 68); fill-opacity: 1; white-space: pre; opacity: 1;" transform="translate(123.71000000000001,0)">5k</text></g><g class="xtick"><text text-anchor="middle" x="0" y="289" style="font-family: 'Open Sans', verdana, arial, sans-serif; font-size: 12px; fill: rgb(68, 68, 68); fill-opacity: 1; white-space: pre; opacity: 1;" transform="translate(187.42000000000002,0)">10k</text></g><g class="xtick"><text text-anchor="middle" x="0" y="289" style="font-family: 'Open Sans', verdana, arial, sans-serif; font-size: 12px; fill: rgb(68, 68, 68); fill-opacity: 1; white-space: pre; opacity: 1;" transform="translate(251.13,0)">15k</text></g></g><g class="yaxislayer-above"><g class="ytick"><text text-anchor="end" x="59" y="4.199999999999999" transform="translate(0,265.2)" style="font-family: 'Open Sans', verdana, arial, sans-serif; font-size: 12px; fill: rgb(68, 68, 68); fill-opacity: 1; white-space: pre; opacity: 1;">0</text></g><g class="ytick"><text text-anchor="end" x="59" y="4.199999999999999" style="font-family: 'Open Sans', verdana, arial, sans-serif; font-size: 12px; fill: rgb(68, 68, 68); fill-opacity: 1; white-space: pre; opacity: 1;" transform="translate(0,213.23)">0.5</text></g><g class="ytick"><text text-anchor="end" x="59" y="4.199999999999999" style="font-family: 'Open Sans', verdana, arial, sans-serif; font-size: 12px; fill: rgb(68, 68, 68); fill-opacity: 1; white-space: pre; opacity: 1;" transform="translate(0,161.26)">1</text></g><g class="ytick"><text text-anchor="end" x="59" y="4.199999999999999" style="font-family: 'Open Sans', verdana, arial, sans-serif; font-size: 12px; fill: rgb(68, 68, 68); fill-opacity: 1; white-space: pre; opacity: 1;" transform="translate(0,109.28)">1.5</text></g></g><g class="overaxes-above"/></g></g><g class="polarlayer"/><g class="smithlayer"/><g class="ternarylayer"/><g class="geolayer"/><g class="funnelarealayer"/><g class="pielayer"/><g class="iciclelayer"/><g class="treemaplayer"/><g class="sunburstlayer"/><g class="glimages"/><defs id="topdefs-20830e"><g class="clips"/></defs><g class="layer-above"><g class="imagelayer"/><g class="shapelayer"/></g><g class="infolayer"><g class="g-gtitle"><text class="gtitle" x="185.5" y="30" text-anchor="middle" dy="0em" style="font-family: 'Open Sans', verdana, arial, sans-serif; font-size: 17px; fill: rgb(68, 68, 68); opacity: 1; font-weight: normal; white-space: pre;">Training loss</text></g><g class="g-xtitle"><text class="xtitle" x="185.5" y="328" text-anchor="middle" style="font-family: 'Open Sans', verdana, arial, sans-serif; font-size: 14px; fill: rgb(68, 68, 68); opacity: 1; font-weight: normal; white-space: pre;">Iterations</text></g><g class="g-ytitle"><text class="ytitle" transform="rotate(-90,22,168)" x="22" y="168" text-anchor="middle" style="font-family: 'Open Sans', verdana, arial, sans-serif; font-size: 14px; fill: rgb(68, 68, 68); opacity: 1; font-weight: normal; white-space: pre;">Loss</text></g></g></svg>