<svg class="main-svg" xmlns="http://www.w3.org/2000/svg" xmlns:xlink="http://www.w3.org/1999/xlink" width="371" height="336" style="" viewBox="0 0 371 336"><rect x="0" y="0" width="371" height="336" style="fill: rgb(255, 255, 255); fill-opacity: 1;"/><defs id="defs-ee97ec"><g class="clips"><clipPath id="clipee97ecxyplot" class="plotclip"><rect width="251" height="216"/></clipPath><clipPath class="axesclip" id="clipee97ecx"><rect x="60" y="0" width="251" height="336"/></clipPath><clipPath class="axesclip" id="clipee97ecy"><rect x="0" y="60" width="371" height="216"/></clipPath><clipPath class="axesclip" id="clipee97ecxy"><rect x="60" y="60" width="251" height="216"/></clipPath></g><g class="gradients"/><g class="patterns"/></defs><g class="bglayer"/><g class="layer-below"><g class="imagelayer"/><g class="shapelayer"/></g><g class="cartesianlayer"><g class="subplot xy"><g class="layer-subplot"><g class="shapelayer"/><g class="imagelayer"/></g><g class="gridlayer"><g class="x"><path class="xgrid crisp" transform="translate(123.71000000000001,0)" d="M0,60v216" style="stroke: rgb(238, 238, 238); stroke-opacity: 1; stroke-width: 1px;"/><path class="xgrid crisp" transform="translate(187.42000000000002,0)" d="M0,60v216" style="stroke: rgb(238, 238, 238); stroke-opacity: 1; stroke-width: 1px;"/><path class="xgrid crisp" transform="translate(251.13,0)" d="M0,60v216" style="stroke: rgb(238, 238, 238); stroke-opacity: 1; stroke-width: 1px;"/></g><g class="y"><path class="ygrid crisp" transform="translate(0,221.46)" d="M60,0h251" style="stroke: rgb(238, 238, 238); stroke-opacity: 1; stroke-width: 1px;"/><path class="ygrid crisp" transform="translate(0,177.70999999999998)" d="M60,0h251" style="stroke: rgb(238, 238, 238); stroke-opacity: 1; stroke-width: 1px;"/><path class="ygrid crisp" transform="translate(0,133.97)" d="M60,0h251" style="stroke: rgb(238, 238, 238); stroke-opacity: 1; stroke-width: 1px;"/><path class="ygrid crisp" transform="translate(0,90.23)" d="M60,0h251" style="stroke: rgb(238, 238, 238); stroke-opacity: 1; stroke-width: 1px;"/></g></g><g class="zerolinelayer"><path class="xzl zl crisp" transform="translate(60,0)" d="M0,60v216" style="stroke: rgb(68, 68, 68); stroke-opacity: 1; stroke-width: 1px;"/><path class="yzl zl crisp" transform="translate(0,265.2)" d="M60,0h251" style="stroke: rgb(68, 68, 68); stroke-opacity: 1; stroke-width: 1px;"/></g><path class="xlines-below"/><path class="ylines-below"/><g class="overlines-below"/><g class="xaxislayer-below"/><g class="yaxislayer-below"/><g class="overaxes-below"/><g class="plot" transform="translate(60,60)" clip-path="url(#clipee97ecxyplot)"><g class="scatterlayer mlayer"><g class="trace scatter trace13146f" style="stroke-miterlimit: 2; opacity: 1;"><g class="fills"/><g class="errorbars"/><g class="lines"><path class="js-line" d="M0,205.2L0.76,10.82L0.78,10.8L1.27,13.13L1.29,11.33L3.78,45.01L3.8,45.03L5.56,50.73L5.59,50.68L5.61,50.65L8.56,56.19L8.61,56.08L8.63,56.06L9.24,56.34L9.3,56.54L9.31,56.62L14.25,62.91L14.26,63.03L15.2,63.59L15.21,63.66L18.5,66.79L18.51,66.82L20.06,67.06L20.07,67.1L20.93,67.54L20.95,67.62L22.37,68.35L22.39,68.26L23.15,68.1L23.23,68.2L23.24,68.19L24.68,69.02L24.69,69L24.71,68.95L26.6,69.18L26.64,69.08L26.66,69.07L27.55,68.84L27.59,68.87L27.6,68.91L28.35,69.1L28.36,69.14L28.38,69.16L29.24,69.38L29.31,69.24L29.32,69.19L33.79,69.49L33.8,69.54L35.52,69.44L35.54,69.43L36.82,69.92L36.84,69.94L37.92,69.43L37.98,69.59L38,69.61L39.07,69.64L39.08,69.72L40.19,70.03L40.31,69.8L40.33,69.77L45.16,69.81L45.17,69.78L47.72,70.09L47.73,70.06L52.02,70.92L52.04,70.93L52.97,71.06L52.98,71.07L53.99,71.28L54,71.3L54.01,71.31L55.1,71.79L55.11,71.82L55.52,71.78L55.83,72.09L55.85,72.11L62.6,73.06L62.61,73.05L63.26,73.62L63.28,73.64L64.44,73.27L64.46,73.19L64.47,73.15L65.75,73.16L65.76,73.23L67.33,73.7L67.34,73.76L68.67,73.79L68.68,73.82L70.64,73.71L70.65,73.72L72.55,73.78L72.56,73.81L77.64,73.83L77.65,73.88L80.07,74L80.08,74.02L80.9,73.99L80.91,74.02L82.6,73.85L82.62,73.89L86.94,74.32L86.95,74.28L88.73,74.14L88.75,74.15L90.45,74.17L90.47,74.13L93.59,74.02L93.6,73.99L95.44,74.01L95.45,73.99L97.79,74.28L97.81,74.3L99.12,74.26L99.13,74.29L100.56,74.09L100.57,74.06L103.26,74.26L103.27,74.23L104.98,74.22L104.99,74.23L106.41,74.21L106.42,74.18L109.6,74.3L109.62,74.31L110.65,74.59L110.71,74.52L110.73,74.46L113.99,74.05L114,74.11L115.57,74.37L115.58,74.33L115.59,74.31L118.6,74.29L118.61,74.3L121.05,74.42L121.06,74.39L124.42,74.26L124.44,74.28L127.77,74.29L127.79,74.25L128.62,74.15L128.7,74.25L128.72,74.28L131.32,74.28L131.33,74.33L132.85,74.42L132.86,74.45L134.21,74.26L134.22,74.25L135.42,74.5L135.43,74.53L135.44,74.56L136.66,74.53L136.67,74.5L136.68,74.5L138.18,74.41L138.2,74.43L146.03,74.37L146.05,74.34L147.21,74.51L147.24,74.47L147.26,74.46L152.14,74.44L152.15,74.48L153.3,74.39L153.31,74.38L154.46,74.47L154.47,74.49L162.53,74.36L162.55,74.32L164.64,74.49L164.65,74.49L166.43,74.35L166.45,74.4L166.46,74.42L168.14,74.62L168.15,74.65L189.37,75.08L189.38,75.1L190.96,75.44L190.97,75.46L203.93,76.94L203.94,76.93L210.23,76.97L210.24,76.97L223.32,77.1L223.34,77.1L251,77.22" style="vector-effect: non-scaling-stroke; fill: none; stroke: rgb(31, 119, 180); stroke-opacity: 1; stroke-width: 2px; opacity: 1;"/></g><g class="points"/><g class="text"/></g></g></g><g class="overplot"/><path class="xlines-above crisp" d="M0,0" style="fill: none;"/><path class="ylines-above crisp" d="M0,0" style="fill: none;"/><g class="overlines-above"/><g class="xaxislayer-above"><g class="xtick"><text text-anchor="middle" x="0" y="289" transform="translate(60,0)" style="font-family: 'Open Sans', verdana, arial, sans-serif; font-size: 12px; fill: rgb(68, 68, 68); fill-opacity: 1; white-space: pre; opacity: 1;">0</text></g><g class="xtick"><text text-anchor="middle" x="0" y="289" style="font-family: 'Open Sans', verdana, arial, sans-serif; font-size: 12px; fill: rgb(68, 68, 68); fill-opacity: 1; white-space: pre; opacity: 1;" transform="translate(123.71000000000001,0)">5k</text></g><g class="xtick"><text text-anchor="middle" x="0" y="289" style="font-family: 'Open Sans', verdana, arial, sans-serif; font-size: 12px; fill: rgb(68, 68, 68); fill-opacity: 1; white-space: pre; opacity: 1;" transform="translate(187.42000000000002,0)">10k</text></g><g class="xtick"><text text-anchor="middle" x="0" y="289" style="font-family: 'Open Sans', verdana, arial, sans-serif; font-size: 12px; fill: rgb(68, 68, 68); fill-opacity: 1; white-space: pre; opacity: 1;" transform="translate(251.13,0)">15k</text></g></g><g class="yaxislayer-above"><g class="ytick"><text text-anchor="end" x="59" y="4.199999999999999" transform="translate(0,265.2)" style="font-family: 'Open Sans', verdana, arial, sans-serif; font-size: 12px; fill: rgb(68, 68, 68); fill-opacity: 1; white-space: pre; opacity: 1;">0</text></g><g class="ytick"><text text-anchor="end" x="59" y="4.199999999999999" style="font-family: 'Open Sans', verdana, arial, sans-serif; font-size: 12px; fill: rgb(68, 68, 68); fill-opacity: 1; white-space: pre; opacity: 1;" transform="translate(0,221.46)">0.5</text></g><g class="ytick"><text text-anchor="end" x="59" y="4.199999999999999" style="font-family: 'Open Sans', verdana, arial, sans-serif; font-size: 12px; fill: rgb(68, 68, 68); fill-opacity: 1; white-space: pre; opacity: 1;" transform="translate(0,177.70999999999998)">1</text></g><g class="ytick"><text text-anchor="end" x="59" y="4.199999999999999" style="font-family: 'Open Sans', verdana, arial, sans-serif; font-size: 12px; fill: rgb(68, 68, 68); fill-opacity: 1; white-space: pre; opacity: 1;" transform="translate(0,133.97)">1.5</text></g><g class="ytick"><text text-anchor="end" x="59" y="4.199999999999999" style="font-family: 'Open Sans', verdana, arial, sans-serif; font-size: 12px; fill: rgb(68, 68, 68); fill-opacity: 1; white-space: pre; opacity: 1;" transform="translate(0,90.23)">2</text></g></g><g class="overaxes-above"/></g></g><g class="polarlayer"/><g class="smithlayer"/><g class="ternarylayer"/><g class="geolayer"/><g class="funnelarealayer"/><g class="pielayer"/><g class="iciclelayer"/><g class="treemaplayer"/><g class="sunburstlayer"/><g class="glimages"/><defs id="topdefs-ee97ec"><g class="clips"/></defs><g class="layer-above"><g class="imagelayer"/><g class="shapelayer"/></g><g class="infolayer"><g class="g-gtitle"><text class="gtitle" x="185.5" y="30" text-anchor="middle" dy="0em" style="font-family: 'Open Sans', verdana, arial, sans-serif; font-size: 17px; fill: rgb(68, 68, 68); opacity: 1; font-weight: normal; white-space: pre;">Training loss</text></g><g class="g-xtitle"><text class="xtitle" x="185.5" y="328" text-anchor="middle" style="font-family: 'Open Sans', verdana, arial, sans-serif; font-size: 14px; fill: rgb(68, 68, 68); opacity: 1; font-weight: normal; white-space: pre;">Iterations</text></g><g class="g-ytitle"><text class="ytitle" transform="rotate(-90,22,168)" x="22" y="168" text-anchor="middle" style="font-family: 'Open Sans', verdana, arial, sans-serif; font-size: 14px; fill: rgb(68, 68, 68); opacity: 1; font-weight: normal; white-space: pre;">Loss</text></g></g></svg>